<svg width="206" height="71" viewBox="0 0 206 71" fill="none" xmlns="http://www.w3.org/2000/svg">
<path d="M28.3945 19.8321L32.8117 47.8421L28.3717 47.8322L27.6231 42.7505L22.2231 42.7383L21.4517 47.8166L17.4117 47.8076L21.9546 19.8177L28.3945 19.8321ZM24.9434 24.7844L22.7916 38.9396L27.0316 38.9491L24.9434 24.7844ZM34.8607 47.8467L34.9236 19.8468L39.3236 19.8567L39.2697 43.8566L46.5097 43.8729L46.5007 47.8729L34.8607 47.8467ZM48.4154 47.8771L48.4782 19.8772L52.8782 19.8871L52.8244 43.887L60.0643 43.9033L60.0554 47.9033L48.4154 47.8771ZM61.97 47.9076L62.0329 19.9076L66.4329 19.9175L66.37 47.9175L61.97 47.9076ZM79.41 19.9467L83.8272 47.9566L79.3872 47.9467L78.6386 42.865L73.2386 42.8529L72.4672 47.9311L68.4272 47.9221L72.9701 19.9322L79.41 19.9467ZM75.9589 24.8989L73.8071 39.0541L78.0471 39.0636L75.9589 24.8989ZM95.2762 47.9823L89.8417 27.6901L89.7962 47.97L85.8362 47.9612L85.8991 19.9612L91.4191 19.9736L95.9014 36.7437L95.9391 19.9838L99.8591 19.9926L99.7962 47.9925L95.2762 47.9823ZM111.57 37.5789L115.73 37.5882L115.722 41.3082C115.712 45.7882 113.466 48.3432 109.146 48.3335C104.826 48.3238 102.592 45.7588 102.602 41.2788L102.634 26.7188C102.644 22.2388 104.89 19.6839 109.21 19.6935C113.53 19.7032 115.764 22.2683 115.754 26.7483L115.748 29.4682L111.588 29.4589L111.595 26.4589C111.599 24.4589 110.721 23.6969 109.321 23.6938C107.921 23.6907 107.039 24.4487 107.035 26.4487L107.001 41.5686C106.996 43.5686 107.875 44.2906 109.275 44.2938C110.675 44.2969 111.556 43.5789 111.561 41.5789L111.57 37.5789ZM122.83 24.0441L122.813 31.8441L128.852 31.8577L128.844 35.8577L122.804 35.8441L122.785 44.0441L130.385 44.0611L130.376 48.0611L118.376 48.0342L118.439 20.0343L130.439 20.0612L130.43 24.0612L122.83 24.0441Z" fill="#424242"/>
<path d="M145.82 13.22V20.78C145.82 21.78 146.26 22.16 146.96 22.16C147.66 22.16 148.1 21.78 148.1 20.78V13.22C148.1 12.22 147.66 11.84 146.96 11.84C146.26 11.84 145.82 12.22 145.82 13.22ZM143.62 20.64V13.36C143.62 11.12 144.8 9.84 146.96 9.84C149.12 9.84 150.3 11.12 150.3 13.36V20.64C150.3 22.88 149.12 24.16 146.96 24.16C144.8 24.16 143.62 22.88 143.62 20.64ZM153.93 12V16.22H156.77V18.22H153.93V24H151.73V10H157.55V12H153.93ZM145.44 28L147.12 39.42L148.8 28H150.82L148.66 42H145.38L143.22 28H145.44ZM153.847 31.22V38.78C153.847 39.78 154.287 40.16 154.987 40.16C155.687 40.16 156.127 39.78 156.127 38.78V31.22C156.127 30.22 155.687 29.84 154.987 29.84C154.287 29.84 153.847 30.22 153.847 31.22ZM151.647 38.64V31.36C151.647 29.12 152.827 27.84 154.987 27.84C157.147 27.84 158.327 29.12 158.327 31.36V38.64C158.327 40.88 157.147 42.16 154.987 42.16C152.827 42.16 151.647 40.88 151.647 38.64ZM159.757 42V28H161.957V40H165.577V42H159.757ZM166.434 28H168.634V38.8C168.634 39.8 169.074 40.16 169.774 40.16C170.474 40.16 170.914 39.8 170.914 38.8V28H172.994V38.66C172.994 40.9 171.874 42.18 169.714 42.18C167.554 42.18 166.434 40.9 166.434 38.66V28ZM179.203 42L176.463 31.86V42H174.483V28H177.243L179.503 36.38V28H181.463V42H179.203ZM143.16 48V46H149.96V48H147.66V60H145.46V48H143.16ZM153.129 48V51.9H156.149V53.9H153.129V58H156.929V60H150.929V46H156.929V48H153.129ZM160.492 48V51.9H163.512V53.9H160.492V58H164.292V60H158.292V46H164.292V48H160.492ZM172.495 60H170.255C170.135 59.64 170.055 59.42 170.055 58.28V56.08C170.055 54.78 169.615 54.3 168.615 54.3H167.855V60H165.655V46H168.975C171.255 46 172.235 47.06 172.235 49.22V50.32C172.235 51.76 171.775 52.7 170.795 53.16C171.895 53.62 172.255 54.68 172.255 56.14V58.3C172.255 58.98 172.275 59.48 172.495 60ZM168.915 48H167.855V52.3H168.715C169.535 52.3 170.035 51.94 170.035 50.82V49.44C170.035 48.44 169.695 48 168.915 48ZM173.422 49.36C173.422 47.12 174.522 45.84 176.662 45.84C178.802 45.84 179.902 47.12 179.902 49.36V49.8H177.822V49.22C177.822 48.22 177.422 47.84 176.722 47.84C176.022 47.84 175.622 48.22 175.622 49.22C175.622 52.1 179.922 52.64 179.922 56.64C179.922 58.88 178.802 60.16 176.642 60.16C174.482 60.16 173.362 58.88 173.362 56.64V55.78H175.442V56.78C175.442 57.78 175.882 58.14 176.582 58.14C177.282 58.14 177.722 57.78 177.722 56.78C177.722 53.9 173.422 53.36 173.422 49.36Z" fill="#424242"/>
<rect x="3.07265" y="2.77597" width="200" height="65" transform="rotate(0.128617 3.07265 2.77597)" stroke="#424242" stroke-width="4"/>
</svg>
