<svg viewBox="0 0 50 50" xmlns="http://www.w3.org/2000/svg">
  <rect x="1" y="1" width="48" height="48" rx="24" fill="#D9D9D9" stroke="#424242" stroke-width="2"></rect>
  <path d="M19.0126 10.5633C18.5188 9.38201 17.2313 8.75701 16.0063 9.08826L15.6626 9.18201C11.6251 10.282 8.17507 14.1945 9.18132 18.957C11.5001 29.8945 20.1063 38.5008 31.0438 40.8195C35.8126 41.832 39.7188 38.3758 40.8188 34.3383L40.9126 33.9945C41.2501 32.7633 40.6188 31.4758 39.4438 30.9883L33.3626 28.457C32.3313 28.0258 31.1376 28.3258 30.4251 29.1945L28.0126 32.1445C23.6188 29.9633 20.0813 26.3133 18.0501 21.832L20.8126 19.582C21.6813 18.8758 21.9751 17.682 21.5501 16.6445L19.0126 10.5633Z" fill="#424242"></path>
</svg>
